<svg width="127" height="127" viewBox="0 0 127 127" fill="none" xmlns="http://www.w3.org/2000/svg">
<path fill-rule="evenodd" clip-rule="evenodd" d="M84.9901 42.0097C72.9254 29.945 53.3647 29.945 41.3 42.0097L31.2177 31.9273C48.8507 14.2944 77.4394 14.2944 95.0724 31.9273C112.705 49.5603 112.705 78.149 95.0724 95.782L84.9901 85.6997C97.0547 73.635 97.0547 54.0743 84.9901 42.0097Z" fill="url(#paint0_linear_10091_102)"/>
<path fill-rule="evenodd" clip-rule="evenodd" d="M41.7854 85.2144C53.8501 97.2791 73.1935 97.4964 84.99 85.6998L95.0724 95.7822C77.8312 113.023 49.5601 112.706 31.9271 95.0727C14.2941 77.4397 13.9765 49.1686 31.2176 31.9275L41.3 42.0098C29.5034 53.8064 29.7207 73.1497 41.7854 85.2144Z" fill="#C4C4C4"/>
<defs>
<linearGradient id="paint0_linear_10091_102" x1="70.8907" y1="7.74569" x2="117.15" y2="72.5852" gradientUnits="userSpaceOnUse">
<stop stop-color="#DF5950"/>
<stop offset="1" stop-color="#451046"/>
</linearGradient>
</defs>
</svg>
